<?xml version="1.0" standalone="no"?>
<!DOCTYPE svg PUBLIC "-//W3C//DTD SVG 20010904//EN"
 "http://www.w3.org/TR/2001/REC-SVG-20010904/DTD/svg10.dtd">
<svg version="1.0" xmlns="http://www.w3.org/2000/svg"
 width="200.000000pt" height="200.000000pt" viewBox="0 0 200.000000 200.000000"
 preserveAspectRatio="xMidYMid meet">
<metadata>
Created by potrace 1.11, written by Peter Selinger 2001-2013
</metadata>
<g transform="translate(0.000000,200.000000) scale(0.100000,-0.100000)"
fill="#000000" stroke="none">
<path d="M409 1918 c-1 -7 -2 -107 -3 -223 l-1 -210 -74 -2 c-40 -1 -76 -4
-78 -7 -3 -3 -7 -22 -8 -43 -2 -21 -4 -41 -4 -45 -1 -5 -37 -8 -81 -8 -113 0
-120 -9 -120 -139 0 -133 6 -140 120 -143 l85 -3 1 -450 c1 -247 2 -456 3
-462 2 -24 72 -92 104 -102 20 -6 266 -9 663 -8 l630 2 37 25 c72 49 71 42 73
540 1 245 2 448 3 453 0 4 39 7 85 7 110 0 116 7 116 140 0 135 -2 137 -141
139 l-66 1 2 40 c3 53 -13 64 -93 65 l-67 0 0 220 -1 220 -592 3 c-470 2 -592
0 -593 -10z m1161 -329 l0 -311 -62 6 c-133 12 -179 13 -184 5 -7 -11 -641
-12 -648 -1 -5 9 -55 7 -177 -4 l-66 -6 -2 311 -1 311 570 0 570 0 0 -311z
m357 -256 c6 -8 9 -21 6 -29 -4 -12 -24 -14 -91 -12 -85 3 -86 4 -86 28 0 20
6 26 29 30 50 9 129 0 142 -17z m-1683 -13 c0 -24 -1 -25 -83 -28 -46 -2 -87
1 -92 5 -4 4 -3 18 2 31 8 22 13 23 91 20 81 -3 82 -4 82 -28z m292 -82 c10
-10 144 -10 144 0 0 9 626 9 636 0 10 -11 144 -10 144 0 0 4 24 7 53 7 l52 -1
3 -90 3 -91 -188 -1 c-103 0 -200 0 -214 -1 -36 -1 -79 -46 -79 -83 0 -29 37
-77 62 -79 7 -1 51 -2 98 -3 103 -3 126 -9 144 -44 19 -36 10 -78 -22 -102
-23 -19 -41 -20 -369 -20 -217 0 -351 4 -364 10 -24 13 -46 59 -41 86 1 12 14
32 28 45 22 20 35 23 123 24 75 1 105 5 125 18 46 31 47 103 2 133 -20 12 -61
15 -233 16 l-209 2 -1 85 c-1 47 3 89 8 92 13 8 86 5 95 -3z m-144 -643 c6
-68 5 -70 -37 -70 -36 0 -40 2 -43 28 -5 45 4 57 43 57 24 0 35 -5 37 -15z
m116 -2 c4 -10 7 -24 6 -30 -1 -7 -2 -20 -3 -28 -1 -19 -80 -21 -82 -2 -4 32
2 61 13 69 22 14 57 9 66 -9z m118 3 c20 -52 6 -76 -42 -76 -20 0 -34 5 -35
13 0 6 -2 21 -4 32 -2 10 1 25 7 32 14 17 67 17 74 -1z m120 -10 c11 -47 2
-61 -41 -61 -36 0 -40 3 -43 28 -4 37 13 57 49 57 22 0 30 -6 35 -24z m120 0
c11 -47 2 -61 -41 -61 -38 0 -40 2 -43 34 -4 38 9 51 50 51 21 0 29 -6 34 -24z
m117 3 c5 -9 7 -28 3 -43 -6 -24 -11 -27 -44 -24 -32 3 -37 7 -40 31 -5 46 4
59 39 55 18 -2 36 -10 42 -19z m115 4 c4 -10 7 -24 6 -30 -1 -7 -2 -20 -3 -28
-1 -11 -13 -15 -41 -15 -28 0 -40 4 -41 15 -1 8 -2 21 -3 28 -4 26 15 47 44
47 18 0 33 -7 38 -17z m120 -30 l3 -43 -40 0 c-35 0 -42 4 -47 24 -10 39 12
68 49 64 30 -3 32 -6 35 -45z m117 2 c0 -40 0 -40 -40 -40 -36 0 -40 3 -43 28
-5 38 14 57 52 54 29 -2 31 -5 31 -42z m114 31 c7 -8 11 -27 9 -43 -3 -25 -7
-28 -43 -28 -36 0 -40 2 -43 28 -2 16 -1 35 2 43 7 18 60 18 75 0z m121 -5
c25 -48 -1 -80 -57 -69 -18 3 -30 46 -19 74 8 21 63 18 76 -5z m116 7 c5 -7 9
-20 8 -28 -1 -8 -2 -23 -3 -32 -1 -14 -10 -18 -41 -18 -31 0 -40 4 -42 18 0 9
-2 24 -3 32 -2 24 15 40 45 40 15 0 32 -6 36 -12z m-1238 -121 c16 -11 15 -52
-2 -70 -19 -19 -76 -10 -77 12 -2 19 1 42 6 57 4 13 53 13 73 1z m119 0 c14
-10 9 -67 -7 -77 -17 -11 -70 1 -71 16 -1 8 -2 20 -3 27 -4 26 15 47 42 45 15
-1 32 -6 39 -11z m121 -34 c3 -45 1 -47 -48 -43 -31 2 -30 1 -36 36 -6 34 13
51 53 50 26 -1 28 -5 31 -43z m115 38 c16 -2 7 -70 -10 -79 -31 -16 -68 1 -71
32 -5 36 14 57 47 52 14 -2 29 -5 34 -5z m114 -3 c19 -16 16 -66 -4 -77 -10
-5 -20 -10 -23 -12 -3 -1 -15 3 -27 10 -17 9 -23 21 -23 46 0 18 5 35 11 37
25 8 54 7 66 -4z m122 -1 c13 -16 7 -67 -8 -77 -19 -11 -61 0 -69 19 -9 19 -9
42 0 57 10 15 64 15 77 1z m120 -5 c11 -18 5 -63 -9 -72 -17 -11 -62 -3 -71
12 -10 14 -8 47 4 64 9 16 66 12 76 -4z m114 9 c5 0 7 -18 5 -38 -2 -30 -8
-38 -28 -44 -39 -9 -62 7 -58 42 5 42 21 50 81 40z m122 -36 c0 -36 -3 -40
-30 -46 -45 -8 -55 -1 -55 41 0 41 8 47 55 46 28 -1 30 -4 30 -41z m111 35
c18 -15 15 -69 -4 -78 -21 -9 -43 -9 -59 1 -16 10 -17 74 -2 79 24 8 53 7 65
-2z m121 -7 c5 -10 8 -25 7 -33 -1 -8 -2 -20 -3 -26 -1 -13 -55 -24 -70 -15
-18 11 -20 60 -5 76 21 20 61 19 71 -2z m-1120 -116 c11 -7 12 -61 2 -71 -10
-10 -54 -13 -70 -5 -18 9 -17 68 2 79 13 9 50 7 66 -3z m117 2 c9 -8 14 -56 8
-66 -10 -16 -70 -23 -80 -10 -13 17 -9 66 6 76 14 8 58 9 66 0z m124 -31 c2
-27 -2 -39 -15 -46 -10 -6 -20 -11 -23 -13 -3 -1 -15 3 -27 10 -16 8 -23 21
-23 41 0 33 19 47 58 45 23 -1 27 -6 30 -37z m110 29 c6 -5 12 -21 12 -36 0
-31 -16 -48 -40 -46 -8 1 -23 3 -32 3 -13 2 -18 11 -18 37 0 46 37 67 78 42z
m120 0 c17 -11 15 -52 -4 -71 -8 -9 -25 -14 -37 -12 -12 3 -25 5 -29 5 -5 1
-8 19 -8 40 0 29 5 41 18 44 22 6 44 3 60 -6z m122 -6 c7 -12 6 -59 -2 -66 -8
-8 -56 -13 -66 -6 -18 11 -22 60 -6 75 16 16 63 14 74 -3z m113 10 c5 -1 7
-20 5 -43 -3 -41 -4 -43 -36 -44 -39 0 -54 15 -49 51 4 31 19 43 50 39 12 -1
26 -3 30 -3z m120 0 c12 -1 8 -69 -5 -78 -18 -11 -51 -11 -65 0 -16 12 -17 59
-2 74 6 6 23 10 38 8 14 -2 29 -4 34 -4z m115 -5 c16 -10 15 -61 0 -73 -11 -8
-29 -9 -68 -4 -15 2 -12 78 3 84 16 6 50 3 65 -7z m124 -8 c9 -14 6 -47 -5
-64 -6 -10 -62 -12 -72 -3 -3 4 -8 48 -6 66 2 23 68 24 83 1z m-124 -113 c9
-3 12 -19 10 -47 l-3 -43 -452 -1 -452 -1 -5 26 c-9 41 -1 65 23 71 27 6 861
2 879 -5z"/>
</g>
</svg>
